<svg width="208" height="88" viewBox="0 0 208 88" fill="none" xmlns="http://www.w3.org/2000/svg">
<path d="M30.6058 88C24.8185 88 19.6248 86.6548 15.0246 83.9643C10.4245 81.1991 6.78891 77.4624 4.11787 72.7541C1.44682 68.0459 0.0741959 62.7397 0 56.8357V5.7172C0 3.9983 0.51937 2.61571 1.55811 1.56943C2.67105 0.523142 4.04367 0 5.67598 0C7.38248 0 8.7551 0.523142 9.79384 1.56943C10.8326 2.61571 11.352 3.9983 11.352 5.7172V35.9847C13.9488 32.8459 17.065 30.3796 20.7006 28.586C24.4104 26.7176 28.4541 25.7834 32.8316 25.7834C38.2479 25.7834 43.1077 27.166 47.4111 29.9312C51.7145 32.6217 55.0904 36.321 57.5388 41.0293C60.0615 45.6628 61.3228 50.9316 61.3228 56.8357C61.3228 62.7397 59.9502 68.0459 57.2049 72.7541C54.5339 77.4624 50.8983 81.1991 46.2982 83.9643C41.698 86.6548 36.4672 88 30.6058 88ZM30.6058 77.9108C34.3897 77.9108 37.7656 77.014 40.7335 75.2204C43.7013 73.352 46.0385 70.811 47.745 67.5975C49.5257 64.3839 50.416 60.7966 50.416 56.8357C50.416 52.8 49.5257 49.2127 47.745 46.0739C46.0385 42.935 43.7013 40.4688 40.7335 38.6752C37.7656 36.8068 34.3897 35.8726 30.6058 35.8726C26.896 35.8726 23.5201 36.8068 20.478 38.6752C17.5102 40.4688 15.173 42.935 13.4665 46.0739C11.76 49.2127 10.9068 52.8 10.9068 56.8357C10.9068 60.7966 11.76 64.3839 13.4665 67.5975C15.173 70.811 17.5102 73.352 20.478 75.2204C23.5201 77.014 26.896 77.9108 30.6058 77.9108Z" fill="#0009E1"/>
<path d="M105.854 88C99.8443 88 94.5393 86.6921 89.9392 84.0764C85.339 81.386 81.7034 77.724 79.0324 73.0904C76.4355 68.3822 75.1371 63.0013 75.1371 56.9478C75.1371 50.8195 76.4355 45.4386 79.0324 40.8051C81.7034 36.0968 85.339 32.4348 89.9392 29.8191C94.5393 27.1287 99.8443 25.7834 105.854 25.7834C111.79 25.7834 117.058 27.1287 121.658 29.8191C126.258 32.4348 129.857 36.0968 132.453 40.8051C135.124 45.4386 136.46 50.8195 136.46 56.9478C136.46 63.0013 135.161 68.3822 132.565 73.0904C129.968 77.724 126.369 81.386 121.769 84.0764C117.169 86.6921 111.864 88 105.854 88ZM105.854 77.9108C109.712 77.9108 113.125 77.014 116.093 75.2204C119.061 73.4268 121.361 70.9605 122.993 67.8217C124.7 64.6828 125.553 61.0582 125.553 56.9478C125.553 52.8374 124.7 49.2127 122.993 46.0739C121.361 42.8603 119.061 40.3567 116.093 38.5631C113.125 36.7694 109.712 35.8726 105.854 35.8726C101.996 35.8726 98.583 36.7694 95.6152 38.5631C92.6473 40.3567 90.3102 42.8603 88.6037 46.0739C86.8971 49.2127 86.0439 52.8374 86.0439 56.9478C86.0439 61.0582 86.8971 64.6828 88.6037 67.8217C90.3102 70.9605 92.6473 73.4268 95.6152 75.2204C98.583 77.014 101.996 77.9108 105.854 77.9108Z" fill="#0009E1"/>
<path d="M181.957 88C175.799 88 170.309 86.6921 165.486 84.0764C160.737 81.386 156.99 77.724 154.245 73.0904C151.574 68.3822 150.239 63.0013 150.239 56.9478C150.239 50.8195 151.5 45.4386 154.023 40.8051C156.619 36.0968 160.181 32.4348 164.707 29.8191C169.233 27.1287 174.426 25.7834 180.288 25.7834C186.075 25.7834 191.046 27.0913 195.201 29.707C199.356 32.248 202.51 35.7979 204.661 40.3567C206.887 44.8408 208 50.0348 208 55.9389C208 57.3588 207.518 58.5546 206.553 59.5261C205.589 60.4229 204.364 60.8713 202.88 60.8713H158.029V51.9032H202.547L197.984 55.042C197.909 51.3053 197.167 47.9796 195.758 45.065C194.348 42.0756 192.345 39.7214 189.748 38.0025C187.151 36.2836 183.998 35.4242 180.288 35.4242C176.059 35.4242 172.423 36.3584 169.381 38.2267C166.413 40.0951 164.15 42.6735 162.592 45.9618C161.034 49.1754 160.255 52.8374 160.255 56.9478C160.255 61.0582 161.182 64.7202 163.037 67.9338C164.892 71.1474 167.452 73.6883 170.717 75.5567C173.981 77.425 177.728 78.3592 181.957 78.3592C184.257 78.3592 186.595 77.9482 188.969 77.1261C191.417 76.2293 193.383 75.2204 194.867 74.0994C195.98 73.2773 197.167 72.8662 198.429 72.8662C199.764 72.7915 200.914 73.1652 201.879 73.9873C203.14 75.1083 203.808 76.3414 203.882 77.6866C203.956 79.0318 203.363 80.1902 202.101 81.1618C199.579 83.1796 196.425 84.8238 192.641 86.0943C188.932 87.3648 185.37 88 181.957 88Z" fill="#0009E1"/>
<path d="M74.8231 4.56985C73.9103 5.29968 73.4539 6.1998 73.4539 7.27022L73.4539 12.817C73.4539 17.9763 77.6062 22.1588 82.7284 22.1588H101.277V12.8169H88.4541C85.4129 12.8169 82.9474 10.3336 82.9474 7.27022C82.9474 6.1998 82.5214 5.29968 81.6694 4.56985C80.7566 3.84002 79.6003 3.4751 78.2006 3.4751C76.8618 3.4751 75.736 3.84002 74.8231 4.56985Z" fill="#0009E1"/>
<path d="M137.006 4.56985C137.919 5.29968 138.375 6.1998 138.375 7.27022L138.375 12.817C138.375 17.9763 134.223 22.1588 129.101 22.1588H110.552V12.8169H123.375C126.416 12.8169 128.882 10.3336 128.882 7.27022C128.882 6.1998 129.308 5.29968 130.16 4.56985C131.073 3.84002 132.229 3.4751 133.629 3.4751C134.967 3.4751 136.093 3.84002 137.006 4.56985Z" fill="#0009E1"/>
</svg>
