<svg width="39" height="38" viewBox="0 0 39 38" fill="none" xmlns="http://www.w3.org/2000/svg">
<path d="M19.053 10.4649C14.3327 10.4649 10.5253 14.2723 10.5253 18.9926C10.5253 23.7129 14.3327 27.5204 19.053 27.5204C23.7733 27.5204 27.5807 23.7129 27.5807 18.9926C27.5807 14.2723 23.7733 10.4649 19.053 10.4649ZM19.053 24.5368C16.0026 24.5368 13.5089 22.0504 13.5089 18.9926C13.5089 15.9348 15.9952 13.4485 19.053 13.4485C22.1108 13.4485 24.5972 15.9348 24.5972 18.9926C24.5972 22.0504 22.1034 24.5368 19.053 24.5368ZM29.9186 10.1161C29.9186 11.2219 29.028 12.1051 27.9296 12.1051C26.8237 12.1051 25.9405 11.2145 25.9405 10.1161C25.9405 9.01763 26.8311 8.127 27.9296 8.127C29.028 8.127 29.9186 9.01763 29.9186 10.1161ZM35.5667 12.1348C35.4405 9.47036 34.8319 7.11021 32.88 5.16567C30.9354 3.22114 28.5753 2.61255 25.9108 2.47896C23.1647 2.3231 14.9339 2.3231 12.1878 2.47896C9.53075 2.60513 7.17059 3.21372 5.21864 5.15825C3.26668 7.10278 2.66551 9.46294 2.53192 12.1274C2.37606 14.8735 2.37606 23.1043 2.53192 25.8504C2.65809 28.5149 3.26668 30.8751 5.21864 32.8196C7.17059 34.7641 9.52332 35.3727 12.1878 35.5063C14.9339 35.6622 23.1647 35.6622 25.9108 35.5063C28.5753 35.3801 30.9354 34.7715 32.88 32.8196C34.8245 30.8751 35.4331 28.5149 35.5667 25.8504C35.7225 23.1043 35.7225 14.8809 35.5667 12.1348ZM32.019 28.7969C31.4401 30.2516 30.3194 31.3723 28.8573 31.9586C26.6679 32.827 21.4725 32.6266 19.053 32.6266C16.6335 32.6266 11.4307 32.8196 9.24871 31.9586C7.79403 31.3797 6.67332 30.259 6.087 28.7969C5.21864 26.6075 5.41903 21.4122 5.41903 18.9926C5.41903 16.5731 5.22606 11.3704 6.087 9.18833C6.6659 7.73364 7.78661 6.61294 9.24871 6.02661C11.4382 5.15825 16.6335 5.35864 19.053 5.35864C21.4725 5.35864 26.6753 5.16567 28.8573 6.02661C30.312 6.60552 31.4327 7.72622 32.019 9.18833C32.8874 11.3778 32.687 16.5731 32.687 18.9926C32.687 21.4122 32.8874 26.6149 32.019 28.7969Z" fill="white"/>
</svg>
