<svg width="34" height="34" viewBox="0 0 34 34" fill="none" xmlns="http://www.w3.org/2000/svg">
<path d="M7.86325 33.25H0.969812V11.0512H7.86325V33.25ZM4.41282 8.02304C2.20852 8.02304 0.420593 6.19726 0.420593 3.99296C0.420593 2.93415 0.841202 1.91872 1.58989 1.17003C2.33858 0.421341 3.35402 0.000732422 4.41282 0.000732422C5.47162 0.000732422 6.48706 0.421341 7.23575 1.17003C7.98444 1.91872 8.40505 2.93415 8.40505 3.99296C8.40505 6.19726 6.61637 8.02304 4.41282 8.02304ZM33.6632 33.25H26.7846V22.4437C26.7846 19.8683 26.7326 16.5656 23.2006 16.5656C19.6165 16.5656 19.0673 19.3637 19.0673 22.2582V33.25H12.1813V11.0512H18.7927V14.0793H18.8892C19.8095 12.3351 22.0576 10.4945 25.4115 10.4945C32.3881 10.4945 33.6706 15.0887 33.6706 21.0558V33.25H33.6632Z" fill="white"/>
</svg>
