<svg width="407" height="530" viewBox="0 0 407 530" fill="none" xmlns="http://www.w3.org/2000/svg">
<path d="M407 530V266.178C407 266.178 370 381.021 235.16 399.483V450.416L165.554 399.483C45.2222 381.011 0 266.178 0 266.178V530H165.554V475.548L235.16 530H407Z" fill="#090909"/>
<path d="M407 530V266.178C407 266.178 370 381.021 235.16 399.483V450.416L165.554 399.483C45.2222 381.011 0 266.178 0 266.178V530H165.554V475.548L235.16 530H407Z" fill="url(#paint0_linear_18_350)" fill-opacity="0.8"/>
<path d="M407 194.896C407 302.534 315.89 389.792 203.5 389.792C91.1102 389.792 0.000216503 302.534 0.000216503 194.896C0.000216503 87.2578 91.1102 0 203.5 0C315.89 0 407 87.2578 407 194.896ZM141.68 194.896C141.68 227.595 169.358 254.102 203.5 254.102C237.642 254.102 265.32 227.595 265.32 194.896C265.32 162.197 237.642 135.69 203.5 135.69C169.358 135.69 141.68 162.197 141.68 194.896Z" fill="#090909"/>
<path d="M407 194.896C407 302.534 315.89 389.792 203.5 389.792C91.1102 389.792 0.000216503 302.534 0.000216503 194.896C0.000216503 87.2578 91.1102 0 203.5 0C315.89 0 407 87.2578 407 194.896ZM141.68 194.896C141.68 227.595 169.358 254.102 203.5 254.102C237.642 254.102 265.32 227.595 265.32 194.896C265.32 162.197 237.642 135.69 203.5 135.69C169.358 135.69 141.68 162.197 141.68 194.896Z" fill="url(#paint1_linear_18_350)" fill-opacity="0.8"/>
<defs>
<linearGradient id="paint0_linear_18_350" x1="443.5" y1="126.5" x2="111.311" y2="97.5664" gradientUnits="userSpaceOnUse">
<stop stop-color="#1D8DFF" stop-opacity="0.51"/>
<stop offset="0.453547" stop-color="#711BFF" stop-opacity="0.15"/>
<stop offset="1" stop-color="#090909" stop-opacity="0"/>
</linearGradient>
<linearGradient id="paint1_linear_18_350" x1="443.5" y1="126.5" x2="111.311" y2="97.5664" gradientUnits="userSpaceOnUse">
<stop stop-color="#1D8DFF" stop-opacity="0.51"/>
<stop offset="0.453547" stop-color="#711BFF" stop-opacity="0.15"/>
<stop offset="1" stop-color="#090909" stop-opacity="0"/>
</linearGradient>
</defs>
</svg>
