<svg width="39" height="38" viewBox="0 0 39 38" fill="none" xmlns="http://www.w3.org/2000/svg">
<g clip-path="url(#clip0_18_325)">
<path d="M34.1395 11.2602C34.1636 11.5977 34.1636 11.9354 34.1636 12.2729C34.1636 22.5685 26.3273 34.4315 12.005 34.4315C7.59253 34.4315 3.49357 33.1535 0.0455933 30.9354C0.672519 31.0076 1.27525 31.0318 1.9263 31.0318C5.5671 31.0318 8.91867 29.8021 11.5951 27.7044C8.17121 27.632 5.30191 25.3897 4.31332 22.3033C4.79559 22.3756 5.27779 22.4239 5.78419 22.4239C6.4834 22.4239 7.18269 22.3274 7.83366 22.1587C4.26515 21.4353 1.58868 18.3008 1.58868 14.5153V14.4189C2.62544 14.9975 3.83112 15.3592 5.10894 15.4074C3.01123 14.0089 1.63692 11.6219 1.63692 8.92133C1.63692 7.47466 2.02263 6.14852 2.6978 4.99115C6.53157 9.71703 12.2943 12.8033 18.7561 13.1409C18.6356 12.5622 18.5632 11.9595 18.5632 11.3567C18.5632 7.06475 22.0353 3.5686 26.3513 3.5686C28.5937 3.5686 30.619 4.50896 32.0417 6.02799C33.8018 5.69044 35.4896 5.0394 36.9846 4.14729C36.4058 5.9557 35.1761 7.47474 33.5607 8.43913C35.128 8.27044 36.647 7.83633 38.0454 7.2336C36.9847 8.77668 35.6585 10.151 34.1395 11.2602Z" fill="white"/>
</g>
<defs>
<clipPath id="clip0_18_325">
<rect width="38" height="38" fill="white" transform="translate(0.0455933)"/>
</clipPath>
</defs>
</svg>
